<svg width="158" height="54" viewBox="0 0 158 54" fill="none" xmlns="http://www.w3.org/2000/svg">
<path d="M24.8081 0.433509C13.5426 2.82551 -0.897769 17.7624 1.43829 29.1375L29.3511 22.5502L57.524 17.2244C55.1879 5.85113 36.0735 -1.96037 24.8081 0.433509Z" fill="#838393"/>
<path d="M30.9579 30.3584C46.4458 27.0694 58.3488 21.2288 57.544 17.3129C56.7392 13.397 43.5313 12.8887 28.0434 16.1777C12.5555 19.4666 0.652425 25.3073 1.45723 29.2232C2.26204 33.1391 15.4699 33.6473 30.9579 30.3584Z" fill="#C3C3D6"/>
<path d="M3.62324 20.5175C9.54543 16.6033 17.8719 13.3715 27.0668 11.42C36.2617 9.46668 45.1634 9.03927 52.131 10.2147C52.8022 10.3271 53.4475 10.4565 54.0651 10.5989C52.356 8.62311 50.1563 6.8591 47.6783 5.36316C41.2196 4.95262 33.7818 5.57312 26.1965 7.18341C18.6113 8.7937 11.5496 11.2551 5.79336 14.2582C4.11184 16.6389 2.78985 19.1509 2.00256 21.6554C2.51329 21.2748 3.05351 20.8943 3.62324 20.5175Z" fill="#C3C3D6"/>
<path d="M30.687 29.0413C41.16 26.8168 49.209 22.8667 48.6649 20.2186C48.1207 17.5705 39.1896 17.2271 28.7165 19.4516C18.2435 21.6762 10.1945 25.6262 10.7386 28.2743C11.2828 30.9224 20.2139 31.2658 30.687 29.0413Z" fill="#838393"/>
<path d="M30.3747 27.5242C36.9564 26.1262 42.0147 23.6439 41.6728 21.9798C41.3308 20.3158 35.7182 20.1001 29.1365 21.498C22.5548 22.896 17.4965 25.3783 17.8385 27.0424C18.1804 28.7064 23.7931 28.9221 30.3747 27.5242Z" fill="#C3C3D6"/>
<path d="M30.2686 27.001C35.1299 25.9685 38.8659 24.1349 38.6133 22.9056C38.3607 21.6763 34.2152 21.5168 29.3539 22.5493C24.4927 23.5819 20.7566 25.4155 21.0092 26.6448C21.2618 27.8741 25.4074 28.0336 30.2686 27.001Z" fill="#ECECF2"/>
<path d="M25.1417 2.06254C36.4071 -0.32946 55.3537 6.66658 57.5238 17.2263C55.1878 5.85113 36.0734 -1.96037 24.808 0.433506C13.5425 2.82551 -0.897892 17.7624 1.43817 29.1375C-0.730108 18.5778 13.8781 4.45454 25.1417 2.06254Z" fill="#DCDCFF"/>
<path opacity="0.5" d="M15.698 54.0005H53.8364L35.194 23.6318L29.8102 24.7753L24.4246 25.9189L15.698 54.0005Z" fill="url(#paint0_linear_448_68381)"/>
<path fill-rule="evenodd" clip-rule="evenodd" d="M28.0677 33.3537C28.0019 33.396 27.9362 33.4383 27.8708 33.481L27.8725 33.4777C27.8708 33.3989 27.8775 33.3185 27.8909 33.238C27.9111 33.2227 27.9313 33.2073 27.9516 33.1919C28.0358 33.128 28.1209 33.0635 28.206 33C28.2228 33.0184 28.2362 33.0386 28.2429 33.0637H28.2446C28.2546 33.119 28.2613 33.1726 28.2647 33.2263C28.1993 33.269 28.1335 33.3113 28.0677 33.3537ZM28.5781 33.4778L28.5782 33.4774L28.5798 33.4761L28.5781 33.4778ZM28.5782 33.4774C28.605 33.3703 28.6453 33.2648 28.7072 33.1677C28.7139 33.156 28.7172 33.1443 28.7189 33.1309C28.5982 33.2063 28.4776 33.2834 28.3586 33.3605C28.3234 33.4208 28.2932 33.4828 28.2664 33.5465C28.2697 33.503 28.2714 33.4594 28.2714 33.4158L27.6077 33.8432C27.6395 33.9505 27.6831 34.0544 27.7367 34.155C28.0178 33.9308 28.2988 33.7066 28.5782 33.4774ZM28.5395 33.7844C28.5395 33.7685 28.5411 33.7519 28.5426 33.7355C28.5433 33.7277 28.544 33.7199 28.5446 33.7124C28.3032 33.9085 28.0618 34.1029 27.8188 34.2973C27.8188 34.299 27.8222 34.3024 27.8238 34.304C28.206 34.0409 28.5898 33.7794 28.9753 33.5179C28.9904 33.4844 29.0055 33.4526 29.0222 33.4191C29.039 33.3872 29.034 33.352 29.0172 33.3252C28.9544 33.3771 28.8911 33.4291 28.8278 33.481C28.7646 33.533 28.7013 33.585 28.6384 33.6369L28.6384 33.637C28.6049 33.6856 28.5714 33.7342 28.5412 33.7844H28.5395ZM29.3288 35.2141C29.2366 35.2795 29.144 35.3448 29.0514 35.4102C28.9588 35.4756 28.8662 35.5409 28.774 35.6063L28.7771 35.6139L28.779 35.6181C28.7807 35.6218 28.7823 35.6256 28.784 35.6298C28.7857 35.634 28.787 35.6382 28.7882 35.6424C28.7895 35.6465 28.7907 35.6507 28.7924 35.6549L28.8979 35.5746C29.0449 35.4627 29.191 35.3515 29.3371 35.2393C29.3355 35.2351 29.3342 35.2313 29.3329 35.2275C29.3317 35.2237 29.3304 35.22 29.3288 35.2158V35.2141ZM28.8963 36.4443L28.8963 36.4443C29.1662 36.2448 29.436 36.0454 29.7075 35.8476C29.6539 35.7605 29.5969 35.675 29.5382 35.5895C29.4896 35.5191 29.4444 35.4521 29.4058 35.385C29.2164 35.5308 29.027 35.675 28.836 35.8191C28.8812 36.0219 28.8929 36.2331 28.8946 36.4443H28.8963ZM28.8964 36.642C29.1947 36.4225 29.493 36.203 29.7913 35.9851H29.793C29.7981 35.9954 29.8039 36.0051 29.8095 36.0145L29.8096 36.0146L29.8097 36.0148L29.8098 36.0149C29.8132 36.0207 29.8166 36.0263 29.8198 36.032L29.8194 36.0323C29.5111 36.277 29.2028 36.5216 28.8962 36.7678V36.6421L28.8964 36.642ZM27.0342 38.2637C26.9458 38.3349 26.8574 38.4062 26.7685 38.4774C26.1987 38.8864 25.6338 39.302 25.0757 39.7261C25.0472 39.6607 25.0137 39.597 24.9785 39.535C25.7411 38.9903 26.4937 38.4321 27.2462 37.8723C27.2647 37.931 27.2831 37.9913 27.2999 38.05C27.211 38.1212 27.1226 38.1925 27.0342 38.2637ZM24.8629 39.3592C24.868 39.3659 24.8726 39.3726 24.8772 39.3793L24.8772 39.3794C24.8818 39.3861 24.8864 39.3928 24.8914 39.3995C25.6658 38.8463 26.4301 38.2815 27.1944 37.7116C27.1542 37.5943 27.1139 37.4787 27.0737 37.368C27.0536 37.3144 27.0318 37.2624 27.0083 37.2122C26.2105 37.8223 25.4194 38.4374 24.6384 39.0676C24.7043 39.1556 24.7747 39.245 24.8495 39.34L24.8496 39.3401L24.8496 39.3401L24.8496 39.3401L24.8646 39.3592H24.8629ZM22.1619 42.9519C22.0039 43.0767 21.8459 43.2016 21.6875 43.3265C21.7691 43.2471 21.8522 43.1693 21.9352 43.0914L21.9352 43.0914L21.9352 43.0914C21.9768 43.0525 22.0183 43.0136 22.0596 42.9745C22.0577 42.9802 22.0548 42.9853 22.052 42.9902C22.0498 42.994 22.0477 42.9976 22.0462 43.0013C22.1381 42.9531 22.2208 42.8809 22.3046 42.8078C22.4073 42.7181 22.5116 42.6271 22.6362 42.5773C22.478 42.702 22.3202 42.8267 22.1625 42.9514L22.1623 42.9515L22.1623 42.9515L22.1622 42.9516L22.1621 42.9516L22.1621 42.9517L22.162 42.9518L22.1619 42.9518L22.1619 42.9519ZM30.4164 37.3125C29.9974 37.6226 29.5851 37.9394 29.1744 38.2595L29.1795 38.2804L29.1845 38.3014C29.6236 38.0399 30.0644 37.7768 30.4851 37.4902C30.4725 37.4552 30.4593 37.4208 30.4462 37.3867L30.4462 37.3865L30.4462 37.3864C30.4367 37.3617 30.4272 37.3371 30.4181 37.3125H30.4164ZM27.4611 39.1094C27.4779 39.2217 27.4795 39.3306 27.4527 39.4312H27.451C26.1621 40.3899 24.8833 41.3687 23.6228 42.3677C24.8766 41.2514 26.1571 40.1653 27.4611 39.1094ZM28.9365 37.4767C28.9198 37.3862 28.9114 37.2957 28.9047 37.2052L28.9063 37.2035C29.1829 36.9957 29.4595 36.7878 29.7377 36.5817C29.8282 36.5163 29.9204 36.4526 30.0126 36.3889C30.0729 36.5079 30.1299 36.6286 30.1835 36.751C29.7813 37.051 29.379 37.351 28.9784 37.6527C28.9617 37.5957 28.9466 37.537 28.9365 37.4767ZM27.3822 38.3818C27.4091 38.5142 27.4308 38.6483 27.4392 38.7791H27.4409C27.4426 38.7925 27.4443 38.8076 27.4443 38.8226C26.2693 39.7244 25.1028 40.6362 23.9395 41.5513C24.1856 41.235 24.5 41.0158 24.8253 40.7891C24.9964 40.6699 25.1704 40.5485 25.3391 40.4099C25.3005 40.3194 25.267 40.2272 25.2335 40.1351L25.2335 40.135C25.9408 39.54 26.6565 38.9551 27.3822 38.3818ZM29.1258 38.0969C29.5331 37.7801 29.9438 37.4684 30.3578 37.1617L30.2572 36.9153C29.8499 37.2237 29.446 37.5354 29.042 37.8489L29.0421 37.8489C29.0705 37.931 29.099 38.0131 29.1258 38.0953V38.0969ZM28.3188 39.6427C27.5305 40.2141 26.7357 40.7903 26.0175 41.4342V41.4325C25.7021 41.7156 25.3967 42.0095 25.0914 42.3033L25.0914 42.3033L25.0914 42.3033C24.7479 42.634 24.4044 42.9645 24.0469 43.2796C23.7402 43.5511 23.4252 43.8142 23.0884 44.0472C23.1034 43.8796 23.1236 43.7137 23.1537 43.5461C24.4691 42.2605 25.8281 41.0168 27.234 39.8318C27.2642 39.8838 27.3011 39.9324 27.3446 39.976C27.5356 39.8202 27.7653 39.743 27.9953 39.6657C28.2578 39.5775 28.5208 39.4892 28.7271 39.2837L28.7833 39.2279C29.0041 39.0095 29.2236 38.7924 29.2097 38.4742L29.2593 38.4445C29.6905 38.1861 30.1254 37.9254 30.5402 37.6445L30.5812 37.753L30.5812 37.7532L30.5812 37.7532L30.5812 37.7533L30.5813 37.7533L30.5813 37.7535L30.5814 37.7536L30.5815 37.7538L30.5815 37.7539L30.5816 37.7541L30.5817 37.7543L30.5818 37.7546L30.5818 37.7548L30.5819 37.7549L30.582 37.7552L30.582 37.7553L30.5821 37.7554L30.5821 37.7555L30.5822 37.7558L30.5823 37.756L30.5823 37.7561L30.5824 37.7563L30.5824 37.7563L30.5824 37.7564L30.5825 37.7566L30.5825 37.7566L30.5826 37.7567L30.5826 37.7568L30.5826 37.7569L30.5827 37.757L30.5827 37.7571C30.6044 37.8143 30.6262 37.8719 30.6474 37.9295C30.1598 38.2848 29.6738 38.6435 29.1912 39.0038C28.9042 39.2183 28.6119 39.4301 28.3188 39.6427ZM22.0129 43.2737L22.0128 43.2738L21.6205 43.5828C21.6657 43.6733 21.7043 43.7671 21.7395 43.8643C22.0831 43.5459 22.4283 43.2291 22.7753 42.914C22.7906 42.8921 22.8062 42.8702 22.8217 42.8483L22.8217 42.8483C22.8573 42.7984 22.8925 42.749 22.9228 42.7011C22.9496 42.6576 22.9379 42.6039 22.906 42.5704H22.9044C22.6077 42.8054 22.3103 43.0395 22.0132 43.2735L22.0132 43.2735L22.0131 43.2736L22.0131 43.2736L22.013 43.2736L22.013 43.2736L22.013 43.2736L22.013 43.2736L22.013 43.2736L22.013 43.2736L22.0129 43.2737ZM24.7024 41.7359C25.0141 41.4946 25.3242 41.2515 25.6359 41.0068V41.0085C24.813 41.741 24.0085 42.4952 23.219 43.2629L23.224 43.2427C23.2676 43.0885 23.3162 42.9343 23.3665 42.7818C23.809 42.4298 24.2548 42.0812 24.7024 41.7359ZM29.0837 47.2824L29.0837 47.2824L29.0836 47.2826C28.7336 47.6651 28.3836 48.0478 28.0316 48.4285C28.2528 48.5794 28.4925 48.7084 28.7555 48.809C28.8661 48.8509 28.9784 48.8844 29.0924 48.9112C29.4064 48.5455 29.7219 48.1809 30.0374 47.8163L30.0375 47.8162L30.0376 47.816L30.0377 47.8159L30.0378 47.8158L30.0379 47.8157L30.0379 47.8156L30.038 47.8155L30.0381 47.8154L30.0382 47.8153L30.0383 47.8152L30.0384 47.815L30.0385 47.8149L30.0386 47.8148L30.0387 47.8147L30.0388 47.8146L30.0389 47.8145L30.039 47.8144L30.0391 47.8143L30.0392 47.8142L30.0393 47.814L30.0394 47.8139L30.0395 47.8138L30.0396 47.8137L30.0397 47.8136L30.0398 47.8135L30.0399 47.8134L30.04 47.8133C31.2894 46.3694 32.5389 44.9256 33.6955 43.4103C33.5631 43.246 33.4291 43.0818 33.2933 42.9192C31.8154 44.2961 30.4499 45.7888 29.0838 47.2823L29.0838 47.2823L29.0838 47.2823L29.0838 47.2823L29.0838 47.2823L29.0838 47.2823L29.0838 47.2823L29.0838 47.2823L29.0838 47.2823L29.0838 47.2823L29.0838 47.2823L29.0838 47.2823L29.0837 47.2824L29.0837 47.2824L29.0837 47.2824L29.0837 47.2824L29.0837 47.2824L29.0837 47.2824L29.0837 47.2824L29.0837 47.2824L29.0837 47.2824L29.0837 47.2824L29.0837 47.2824L29.0837 47.2824L29.0837 47.2824L29.0837 47.2824L29.0837 47.2824ZM22.7586 43.9381C22.8105 44.0152 22.8658 44.0906 22.9228 44.1627C22.7066 44.3018 22.4602 44.451 22.2004 44.4962C22.3233 44.3711 22.4477 44.2474 22.5721 44.1238L22.5722 44.1237C22.6344 44.0619 22.6966 44.0001 22.7586 43.9381ZM30.0668 42.2051C28.8365 43.2107 27.6398 44.2583 26.4749 45.3394L26.4766 45.3377C27.6029 44.2097 28.746 43.0984 29.8975 41.9939C29.9528 42.0643 30.0098 42.1347 30.0668 42.2051ZM32.9481 42.5251L32.9481 42.5251C32.9297 42.5033 32.9112 42.4815 32.8911 42.4597C32.8006 42.3625 32.7051 42.2603 32.6046 42.1614L32.5108 42.2452C32.4442 42.3045 32.3774 42.3641 32.3113 42.4245C30.9071 43.7 29.5079 44.9722 28.2109 46.3566C27.8372 46.7555 27.4585 47.1545 27.0664 47.5383C27.172 47.6657 27.2843 47.7863 27.3999 47.9037C28.5446 46.6482 29.7891 45.4903 31.0336 44.3325C31.6764 43.7345 32.3191 43.1365 32.9481 42.5251ZM25.3137 44.876C25.3074 44.8668 25.3011 44.8576 25.2952 44.8484C26.8218 43.35 28.3886 41.8934 29.9838 40.4688C29.8833 40.6196 29.7836 40.7709 29.6839 40.9221C29.5842 41.0734 29.4845 41.2247 29.3839 41.3755C29.3938 41.3904 29.4056 41.4044 29.4171 41.4181L29.4292 41.4325L29.3738 41.4865L29.3738 41.4865C29.131 41.7232 28.8889 41.9593 28.6366 42.1867C28.1223 42.6513 27.5731 43.0814 27.0238 43.5117L27.0237 43.5117C26.5742 43.8637 26.1246 44.2158 25.6941 44.5869L25.3321 44.9037C25.3262 44.8945 25.32 44.8853 25.3137 44.876ZM28.8962 36.974L29.27 36.7134L29.6438 36.4527C29.741 36.3807 29.8382 36.3103 29.9354 36.2399C29.9296 36.2281 29.9233 36.2168 29.917 36.2055L29.917 36.2055C29.9107 36.1942 29.9044 36.1829 29.8986 36.1711C29.7681 36.2753 29.6375 36.3793 29.5067 36.4833C29.3031 36.6453 29.0994 36.8073 28.8962 36.9706V36.9723V36.974ZM26.5141 46.7883L26.5135 46.7874V46.7891L26.5141 46.7883ZM26.9659 47.4126C26.8069 47.2134 26.658 47.0042 26.5141 46.7883C27.3132 45.8777 28.1801 45.0248 29.0474 44.1716L29.0474 44.1716L29.0474 44.1715L29.0474 44.1715C29.915 43.3179 30.7831 42.4639 31.5841 41.5513C31.9125 41.5932 32.2175 41.8027 32.4907 42.0524C32.0315 42.4618 31.5813 42.8824 31.1315 43.3026L31.1314 43.3027L31.1313 43.3028C30.826 43.588 30.5209 43.873 30.2134 44.1542C29.642 44.6772 29.0856 45.1901 28.5561 45.7566L28.415 45.9074C27.9393 46.4156 27.463 46.9245 26.9659 47.4126ZM26.9313 37.0695C26.9112 37.0343 26.8894 36.9991 26.8659 36.9656C26.5688 37.1783 26.2717 37.3913 25.9745 37.6043L25.9726 37.6057L25.9667 37.6099L25.9664 37.6101C25.4515 37.9792 24.9363 38.3485 24.4205 38.7171C24.4557 38.7942 24.4976 38.8663 24.5429 38.9367C25.329 38.3031 26.1268 37.6829 26.9296 37.0695H26.9313ZM24.6802 45.2239C24.1976 45.705 23.7201 46.191 23.2475 46.6804C22.9241 46.724 22.6677 46.4726 22.5119 46.1592C22.5007 46.1517 22.4904 46.1424 22.4803 46.1332L22.4803 46.1332L22.47 46.124C23.7054 45.1415 24.9209 44.1337 26.1363 43.1261L26.1363 43.126C27.6475 41.8731 29.1585 40.6202 30.7077 39.4163C30.6541 39.5001 30.5921 39.5872 30.5217 39.6844C30.4651 39.7643 30.4103 39.8441 30.3554 39.924L30.3553 39.9241L30.3552 39.9242L30.3552 39.9243L30.3551 39.9244L30.355 39.9245L30.355 39.9246L30.3549 39.9247L30.3548 39.9248L30.3548 39.9248L30.3547 39.9249L30.3546 39.925L30.3546 39.9251L30.3545 39.9252L30.3544 39.9253L30.3544 39.9254L30.3543 39.9255L30.3543 39.9256L30.3542 39.9257L30.3541 39.9258C28.5997 41.4812 26.8754 43.0701 25.2014 44.711L25.2013 44.711C25.1628 44.6557 25.1243 44.6004 25.0841 44.5468C25.0003 44.7848 24.8394 45.0111 24.6802 45.2239ZM22.4029 45.9731L22.4056 45.971L22.4029 45.9747V45.9731ZM26.0299 43.0058L26.03 43.0057L26.03 43.0057C27.622 41.6853 29.214 40.365 30.8501 39.1028C30.8752 39.0039 30.8853 38.8966 30.8735 38.7659C30.8568 38.5882 30.8132 38.4139 30.7579 38.2429C30.5314 38.4194 30.3046 38.5954 30.0777 38.7714L30.0776 38.7715C29.1216 39.5133 28.166 40.2548 27.2356 41.0269C25.4673 42.4942 23.7274 44.077 22.4056 45.971C23.6263 44.9993 24.8281 44.0026 26.0299 43.0058ZM22.5357 42.1247C22.5172 42.2253 22.4787 42.3141 22.4317 42.3996L22.4334 42.4029C22.1116 42.7013 21.7931 43.0046 21.4764 43.3097C21.3758 43.1236 21.2786 42.9342 21.2132 42.7281C21.1333 42.4759 21.2262 42.2237 21.318 41.9742L21.3372 41.9219C21.3507 41.9219 21.3641 41.9202 21.3775 41.9118L21.3777 41.9117L21.3777 41.9117C21.4598 41.8614 21.5418 41.8112 21.6255 41.761C21.6381 41.8726 21.6173 41.985 21.5964 42.0982C21.5866 42.1515 21.5767 42.2051 21.5702 42.2588C21.7077 42.0794 21.8501 41.9068 22.0194 41.7576C22.0781 41.7057 22.1569 41.761 22.1434 41.833C22.1176 41.9699 22.0449 42.1053 21.9715 42.2419L21.949 42.2839C21.9096 42.32 21.8698 42.3551 21.83 42.3903C21.7902 42.4255 21.7504 42.4607 21.711 42.4968C21.6322 42.5672 21.7412 42.6744 21.8216 42.6124C21.9398 42.5202 22.0575 42.4276 22.1753 42.335C22.293 42.2424 22.4108 42.1498 22.5289 42.0576C22.5357 42.0778 22.5407 42.1012 22.5357 42.1247ZM29.2584 34.7146C29.0171 34.9057 28.7757 35.0951 28.5327 35.2828C28.593 35.3364 28.65 35.3951 28.6969 35.4621C28.7958 35.3926 28.8943 35.323 28.9928 35.2535C29.0912 35.1839 29.1897 35.1144 29.2886 35.0448C29.2878 35.0364 29.2865 35.0284 29.2853 35.0205C29.284 35.0125 29.2827 35.0046 29.2819 34.9962C29.2791 34.9604 29.2785 34.9275 29.278 34.896V34.896V34.896V34.8959V34.8959V34.8959V34.8959V34.8959V34.8959V34.8959V34.8959V34.8958V34.8958V34.8958V34.8958V34.8958V34.8958C29.277 34.8344 29.2761 34.7783 29.2584 34.7163V34.7146ZM29.6058 41.6424C29.671 41.718 29.7354 41.7927 29.7945 41.8665H29.7928C28.464 43.1404 27.1469 44.4259 25.8516 45.7333C25.7091 45.4986 25.5667 45.2657 25.4192 45.0394C25.4553 45.0084 25.4909 44.9769 25.5265 44.9455C25.5621 44.9141 25.5977 44.8827 25.6337 44.8517C26.1508 44.4024 26.6869 43.9771 27.2229 43.552L27.2229 43.552L27.2229 43.552L27.2229 43.552L27.2229 43.552L27.223 43.552L27.223 43.552L27.223 43.5519L27.223 43.5519L27.223 43.5519C27.6788 43.1904 28.1344 42.8291 28.5779 42.4532C28.9114 42.1716 29.2247 41.8665 29.5347 41.5598C29.5584 41.5875 29.5821 41.615 29.6058 41.6424ZM27.023 40.995C27.968 40.2071 28.9404 39.4521 29.9127 38.6972L29.9128 38.6971L29.9129 38.697L29.913 38.6969L29.9131 38.6969L29.9132 38.6968L29.9134 38.6967L29.9135 38.6966L29.9136 38.6965L29.9137 38.6964L29.9138 38.6963L29.9139 38.6963L29.914 38.6962L29.9141 38.6961C30.1431 38.5183 30.372 38.3406 30.6006 38.1624C30.0409 38.5714 29.4829 38.9854 28.9283 39.401C28.6755 39.5906 28.4189 39.7778 28.1617 39.9655C27.3889 40.5292 26.6106 41.097 25.9154 41.7459C25.7001 41.9468 25.4875 42.1509 25.2749 42.3551L25.2748 42.3551L25.2748 42.3551L25.2748 42.3551L25.2748 42.3551L25.2748 42.3551L25.2748 42.3552L25.2748 42.3552L25.2747 42.3552L25.2747 42.3552L25.2747 42.3552L25.2747 42.3552L25.2747 42.3552L25.2747 42.3552C24.7921 42.8185 24.3092 43.2822 23.7939 43.7103C23.7597 43.7388 23.7244 43.7684 23.6882 43.7988L23.688 43.7989L23.688 43.7989L23.688 43.799C23.5027 43.9546 23.2925 44.131 23.0684 44.2852C23.0684 44.2966 23.0668 44.3088 23.0653 44.3207L23.0633 44.3371C23.0591 44.3321 23.055 44.3267 23.0508 44.3212L23.0508 44.3212L23.0507 44.3212C23.0466 44.3157 23.0424 44.3103 23.0382 44.3053C22.7098 44.5265 22.3512 44.6941 21.9926 44.6707C21.9239 44.6656 21.8887 44.5835 21.9389 44.5332C22.2104 44.2583 22.4835 43.9851 22.76 43.7119C22.7651 43.613 22.7449 43.5142 22.6896 43.4119L22.6494 43.3566C22.3646 43.5862 22.0814 43.8175 21.7982 44.0505C21.8004 44.0594 21.8028 44.0684 21.8053 44.0773C21.8101 44.0952 21.8149 44.1131 21.8183 44.131C21.8385 44.2327 21.8567 44.355 21.8766 44.4891C21.9428 44.9339 22.0283 45.508 22.2691 45.8892C23.5727 44.017 25.2819 42.4482 27.0247 40.995H27.023ZM41.2729 38.4205C41.2897 38.3853 41.3383 38.3719 41.3718 38.3819H41.3684C42.2918 38.64 42.337 39.8083 41.9432 40.5173C41.841 40.7 41.7214 40.8709 41.6017 41.0419C41.5469 41.1202 41.492 41.1986 41.4388 41.2782C41.3449 41.4201 41.3189 41.559 41.2923 41.7014C41.2742 41.7978 41.2559 41.8957 41.216 41.9972C41.1389 42.1967 40.968 42.3643 40.7702 42.4448C40.8004 42.5353 40.8071 42.6291 40.7618 42.723C40.668 42.9203 40.4186 42.945 40.2127 42.9653C40.1685 42.9696 40.1264 42.9738 40.0882 42.9794C39.6458 43.0431 39.2085 43.1236 38.7745 43.2275C38.3137 43.3381 37.8562 43.4638 37.4054 43.6063C36.9664 43.7454 36.6765 43.913 36.3682 44.2533C36.145 44.5006 35.9266 44.7575 35.7075 45.0151C35.6074 45.1328 35.5072 45.2507 35.4063 45.3679C35.8655 45.7852 36.3665 46.1523 36.9078 46.459C37.0619 46.5462 37.0502 46.7372 36.9513 46.8562C36.8223 47.0138 36.7016 47.1831 36.5843 47.3557C36.8659 47.4797 37.1742 47.6038 37.4557 47.5401C37.755 47.4724 37.9705 47.2454 38.1763 47.0288L38.1765 47.0285L38.1771 47.0279L38.1775 47.0275C38.2006 47.0032 38.2236 46.979 38.2466 46.9551C38.6002 46.5897 38.8767 46.5562 39.3107 46.8294C39.3727 46.868 39.4029 46.9451 39.3827 47.0155C39.0526 48.1351 38.0154 49.1374 37.1189 49.833C37.0813 49.8621 37.041 49.8959 36.9987 49.9315L36.9987 49.9315C36.7489 50.1416 36.4284 50.411 36.1704 50.1129C36.0427 49.9651 35.9688 49.7306 35.9052 49.5287C35.8887 49.4764 35.873 49.4263 35.8571 49.3804C35.7767 49.1475 35.708 48.9296 35.6694 48.6983C35.6074 48.7318 35.5337 48.7368 35.4667 48.6949C35.091 48.4604 34.7377 48.1922 34.3849 47.9243C34.3065 47.8648 34.2281 47.8053 34.1496 47.7462C34.0927 47.7023 34.0338 47.6593 33.9753 47.6166L33.9233 47.5786C33.3 48.1049 32.6264 48.6094 31.8354 48.8206C31.3917 48.9392 30.9155 48.9592 30.4542 48.9786C30.3808 48.9817 30.3077 48.9848 30.2351 48.9882C29.9117 49.0033 29.5883 49 29.2733 48.9463C29.5643 48.6081 29.8566 48.2709 30.1488 47.9337C31.7408 46.0964 33.3325 44.2595 34.7327 42.2755C34.9606 42.019 35.2036 41.7794 35.4767 41.59C35.9647 41.2507 36.5554 41.1205 37.1308 40.9937L37.1308 40.9936L37.1309 40.9936L37.1312 40.9936L37.1313 40.9935C37.2295 40.9719 37.3272 40.9504 37.4239 40.9279L38.1675 40.7547C38.7384 40.6219 39.309 40.4891 39.8804 40.3547C39.924 40.3446 39.9692 40.3496 40.0078 40.3664C40.0379 40.301 40.0731 40.2373 40.1083 40.177C40.262 39.9117 40.4429 39.6686 40.6237 39.4257L40.6237 39.4257C40.8609 39.107 41.098 38.7885 41.2729 38.4205ZM33.1861 42.7951L33.1859 42.795C33.1424 42.7447 33.0989 42.6945 33.0537 42.6443C32.4361 43.2418 31.8044 43.8274 31.1726 44.4129L31.1726 44.4129L31.1726 44.413L31.1726 44.413L31.1725 44.413L31.1725 44.413L31.1725 44.413L31.1725 44.4131L31.1725 44.4131L31.1724 44.4131L31.1724 44.4131L31.1724 44.4131L31.1724 44.4132C29.9135 45.58 28.6547 46.7467 27.5088 48.0078C27.6311 48.1234 27.7602 48.2324 27.8959 48.3329C28.2444 47.9558 28.591 47.5768 28.9376 47.1979C30.3161 45.6907 31.6941 44.184 33.1844 42.7951H33.1861ZM30.6005 41.9786L30.6006 41.9786L30.6006 41.9785L30.6007 41.9785L30.6007 41.9785L30.6008 41.9784L30.6008 41.9784L30.6009 41.9783L30.601 41.9783L30.601 41.9782L30.6011 41.9782C30.7249 41.8795 30.8487 41.7807 30.9741 41.682V41.6837C31.1115 41.6066 31.2439 41.5647 31.3746 41.5513C30.5966 42.4292 29.7576 43.254 28.9189 44.0786C28.0651 44.918 27.2116 45.7571 26.423 46.6516C26.2822 46.4354 26.1465 46.2158 26.0124 45.9946C27.3563 44.7258 28.7404 43.4989 30.1715 42.329C30.1798 42.3386 30.1882 42.3488 30.1966 42.359C30.2102 42.3755 30.2241 42.3923 30.2385 42.4078C30.3491 42.2569 30.4698 42.1094 30.6005 41.9787L30.6005 41.9786ZM23.6933 41.9486C23.6581 42.024 23.6245 42.1011 23.5927 42.1782C24.1927 41.6452 24.7978 41.119 25.4096 40.5994C24.8364 41.0486 24.2648 41.4978 23.6933 41.9486ZM25.396 37.3361C25.7262 37.0814 26.0497 36.7998 26.3732 36.5132C26.4285 36.5417 26.4821 36.5735 26.5341 36.6121C25.7932 37.1719 25.049 37.7233 24.3015 38.2731L24.3009 38.2686L24.3009 38.2686C24.2978 38.2452 24.2948 38.223 24.2948 38.1993C24.6602 37.9094 25.0273 37.6211 25.396 37.3361ZM28.1791 35.0112C28.4724 34.8051 28.7774 34.6207 29.0959 34.4648V34.4665C29.1261 34.5 29.1562 34.5336 29.1831 34.5688C28.925 34.7732 28.6653 34.976 28.4055 35.1787L28.4053 35.1789C28.3742 35.1553 28.3424 35.1323 28.3108 35.1095L28.3108 35.1094L28.3108 35.1094L28.3108 35.1094L28.3108 35.1094L28.3108 35.1094L28.3108 35.1094C28.2659 35.0769 28.2213 35.0447 28.1791 35.0112ZM24.4289 37.4569C24.3535 37.6329 24.3065 37.8189 24.2948 38.0117L25.4765 37.0714C25.7262 36.8736 25.9709 36.6624 26.2156 36.4462C26.0899 36.4043 25.9575 36.3842 25.8184 36.3909C25.7145 36.4672 25.611 36.5439 25.5075 36.6205C25.404 36.6972 25.3005 36.7739 25.1965 36.8502C24.9384 37.0496 24.682 37.2524 24.4272 37.4552L24.4289 37.4569ZM24.3317 38.4489C25.111 37.8774 25.8871 37.3008 26.6598 36.7192L26.6614 36.7175C26.6983 36.7544 26.7352 36.793 26.7704 36.8349C26.5028 37.0265 26.2352 37.2183 25.9676 37.4101C25.4324 37.7937 24.8971 38.1774 24.3618 38.5596C24.3501 38.5244 24.34 38.4875 24.3317 38.4489ZM27.8657 34.6023C27.8708 34.6224 27.8775 34.6408 27.8858 34.6592C28.1574 34.4631 28.4289 34.2687 28.7021 34.0743C28.7608 34.0307 28.8194 33.9888 28.8798 33.9469V33.9469C28.8798 33.9201 28.8798 33.8933 28.8814 33.8665C28.5412 34.1112 28.2043 34.3576 27.8674 34.6039L27.8657 34.6023ZM24.692 37.0244L24.692 37.0244H24.6903C24.873 36.8031 25.106 36.6204 25.3741 36.5014C25.3794 36.4995 25.3845 36.4977 25.3894 36.496C25.3968 36.4935 25.4039 36.4911 25.411 36.488C25.3549 36.5316 25.2983 36.5744 25.2417 36.6171C25.1851 36.6598 25.1286 36.7026 25.0724 36.7462C24.9468 36.84 24.8195 36.9321 24.6921 37.0243L24.6921 37.0243L24.692 37.0244ZM27.9679 34.8086C27.9948 34.8438 28.0249 34.8756 28.0568 34.9075C28.3585 34.6929 28.6702 34.4968 28.9987 34.3326C28.9552 34.2638 28.925 34.1934 28.9049 34.123C28.8822 34.1398 28.8592 34.1562 28.8362 34.1725C28.8131 34.1888 28.7901 34.2052 28.7674 34.2219C28.5608 34.3717 28.3562 34.5225 28.1513 34.6735L27.9679 34.8086Z" fill="#26262D"/>
<path d="M68.0716 31.6094H71.751C72.3654 31.6094 72.7655 31.8186 72.9441 32.2297V35.3386C72.9441 35.6749 72.9798 35.8393 73.0584 35.8393L72.9441 36.7137V48.1554C72.9441 48.275 73.0584 48.3946 73.2941 48.5291H79.0025C79.6169 48.5291 80.0098 48.7383 80.1884 49.1494V53.3793C79.9884 53.7903 79.674 53.9996 79.2454 53.9996H67.9502C67.3143 53.9996 67 53.6708 67 53.0056V32.7379C67.1 31.9905 67.4572 31.6168 68.0716 31.6168V31.6094Z" fill="#838393"/>
<path d="M83.8875 31.6168H94.359C94.9674 31.6168 95.3637 31.8262 95.5405 32.2373V36.4687C95.3424 36.8873 95.024 37.0967 94.5995 37.0967H89.0666C88.9534 37.0967 88.8402 37.2163 88.7199 37.463V39.7057C88.7199 39.8254 88.8331 39.945 89.0666 40.0721H93.892C94.5005 40.0721 94.8896 40.2814 95.0665 40.6926V44.9239C94.8684 45.3351 94.5571 45.5444 94.1325 45.5444H89.0666C88.9534 45.5444 88.8402 45.6715 88.7199 45.9182V48.1535C88.7199 48.2731 88.8331 48.4002 89.0666 48.5273H94.8401C95.4486 48.5273 95.8377 48.7366 96.0146 49.1478V53.3791C95.8377 53.7903 95.4486 53.9996 94.8401 53.9996H83.8875C83.1799 53.8949 82.8262 53.5211 82.8262 52.8857V32.7308C82.9252 31.9832 83.279 31.6094 83.8875 31.6094V31.6168Z" fill="#838393"/>
<path d="M105.525 31.6094H110.352C111.157 31.6094 111.802 32.7681 112.288 35.0931C115.905 45.2528 117.956 51.3083 118.435 53.252C118.268 53.7529 117.942 53.9996 117.471 53.9996H113.013C112.201 53.9996 111.599 52.8408 111.2 50.5233C111.005 49.7757 110.686 49.4019 110.236 49.4019H105.169C104.945 49.4019 104.423 50.8149 103.604 53.6333C103.314 53.88 103.031 53.9996 102.756 53.9996H98.2975C97.8553 53.9996 97.5363 53.7903 97.3334 53.3791V52.8857C97.3334 52.6764 99.7472 45.7462 104.568 32.1103C104.908 31.7738 105.227 31.6094 105.532 31.6094H105.525ZM107.692 39.5786C106.162 44.3856 105.401 46.9573 105.401 47.2863C105.43 47.4507 105.51 47.5404 105.648 47.5404H109.751L110.106 47.2863C109.142 43.7726 108.381 41.2009 107.815 39.5786H107.692Z" fill="#838393"/>
<path d="M120.856 31.6094H125.502C130.691 31.6094 133.624 32.357 134.307 33.8447C135.366 34.6745 135.895 35.9977 135.895 37.8218V37.9489C135.895 40.4683 134.792 42.4569 132.595 43.9221V44.0492C134.05 45.9406 135.924 48.8861 138.217 52.8782V53.3791C138.012 53.7903 137.688 53.9996 137.247 53.9996H132.47C131.764 53.9996 130.536 52.2577 128.802 48.774C127.743 46.9498 126.927 46.0378 126.354 46.0378H126.229C126.112 46.0378 125.994 46.1649 125.869 46.4116V49.1478C125.869 49.4244 125.906 49.6262 125.987 49.7683L125.869 50.5158V53.3791C125.656 53.7903 125.325 53.9996 124.891 53.9996H120.731C120.077 53.9996 119.754 53.6707 119.754 53.0053V32.357C120.04 31.8561 120.408 31.6094 120.856 31.6094ZM125.869 35.5865V40.4384C125.869 40.558 125.987 40.6776 126.229 40.8122H127.332C128.794 40.6103 129.529 39.8627 129.529 38.5694V37.5751C129.338 35.9977 128.559 35.2127 127.207 35.2127H126.229C126.112 35.2127 125.994 35.3398 125.869 35.5865Z" fill="#838393"/>
<path d="M140.563 31.6168H144.464C145.27 31.6168 146.029 32.4464 146.759 34.1055L152.259 43.1856H152.376L152.493 42.9315V32.7304C152.59 31.9905 152.934 31.6168 153.527 31.6168H156.849C157.449 31.6168 157.828 31.8261 158 32.2371V53.3793C157.828 53.7903 157.449 53.9996 156.849 53.9996H153.41C152.659 53.9996 151.969 53.2896 151.349 51.8772L145.381 42.0571L145.16 41.9301L145.043 42.1842V53.3793C144.871 53.7903 144.485 53.9996 143.892 53.9996H140.57C140.15 53.9996 139.805 53.753 139.536 53.2523V32.3567C139.805 31.856 140.15 31.6094 140.57 31.6094L140.563 31.6168Z" fill="#838393"/>
<path d="M78.628 0.381348C82.4228 0.605201 84.3659 1.05896 84.439 1.73052V6.64319C84.2867 6.93965 84.037 7.14535 83.6959 7.25425C82.435 6.66134 81.2838 6.24994 80.23 6.03213H78.5001C76.2707 6.03213 74.6688 7.30265 73.6759 9.83764C73.5114 10.6544 73.4262 11.3502 73.4262 11.931C73.4262 15.1073 74.9124 16.9889 77.8788 17.5818H79.2371C80.2605 17.5818 81.7041 17.1704 83.568 16.3475H83.9456C84.0735 16.3475 84.238 16.5109 84.439 16.8436V21.5083C84.439 22.3069 82.2523 22.8816 77.8849 23.2265C72.6709 23.2265 69.205 20.8549 67.4934 16.1055C67.1645 14.9681 67 13.6976 67 12.294V12.1669C67 7.07275 69.2294 3.46689 73.6759 1.35541C75.3449 0.702003 76.9956 0.381348 78.6219 0.381348H78.628Z" fill="#838393"/>
<path d="M95.8843 0.00605009C100.593 0.00605009 103.888 2.29904 105.776 6.89106C106.184 8.15553 106.392 9.41999 106.392 10.6966V11.8037C106.392 16.7225 104.083 20.2013 99.4598 22.2401C98.2415 22.5729 96.9624 22.7725 95.6284 22.8512C90.987 22.8512 87.649 20.6792 85.6085 16.3413C85.1151 14.8711 84.8654 13.3163 84.8654 11.6767V11.5496C84.8654 6.61275 86.9303 3.0916 91.054 0.986165C92.6377 0.332755 94.2457 0 95.8782 0L95.8843 0.00605009ZM91.3037 11.6767C91.3037 14.8046 92.5829 16.6438 95.1411 17.2004H96.1218C98.6801 16.7769 99.9592 14.9316 99.9592 11.6767V11.3016C99.9592 8.14948 98.8019 6.26185 96.4934 5.65079H95.2508C93.4417 6.11664 92.5341 6.64905 92.5341 7.24801C91.7057 8.33098 91.2915 9.80115 91.2915 11.6706L91.3037 11.6767Z" fill="#838393"/>
<path d="M109.321 0.744331H114.146C120.346 0.744331 124.141 1.89385 125.524 4.18683C127.089 5.75986 127.875 7.96814 127.875 10.8177V12.2879C127.875 16.3052 125.938 19.4149 122.064 21.6292C120.614 22.446 118.062 22.8514 114.401 22.8514H109.327C108.871 22.8514 108.499 22.6094 108.213 22.1133V1.47639C108.499 0.986335 108.871 0.738281 109.327 0.738281L109.321 0.744331ZM114.395 6.51612V17.0796C114.395 17.2006 114.517 17.3276 114.761 17.4547H116.491C117.758 17.4547 118.951 16.9223 120.078 15.8575C120.986 14.7079 121.437 13.3164 121.437 11.6829V11.3078C121.437 9.08741 120.486 7.53253 118.586 6.64317C117.825 6.31647 117.124 6.15311 116.485 6.15311H114.755C114.639 6.15311 114.517 6.27412 114.389 6.51612H114.395Z" fill="#838393"/>
<path d="M130.756 0.744141H141.757C142.396 0.744141 142.811 0.949844 142.999 1.3552V5.52976C142.786 5.94117 142.457 6.15292 142.007 6.15292H136.196C136.08 6.15292 135.958 6.27392 135.83 6.51593V8.73026C135.83 8.84521 135.952 8.96622 136.196 9.09327H141.27C141.909 9.09327 142.317 9.29897 142.5 9.70433V13.8789C142.287 14.2842 141.964 14.49 141.519 14.49H136.196C136.08 14.49 135.958 14.617 135.83 14.8651V17.0733C135.83 17.1943 135.952 17.3214 136.196 17.4484H142.256C142.896 17.4484 143.304 17.6541 143.487 18.0595V22.2341C143.304 22.6455 142.89 22.8451 142.256 22.8451H130.756C130.013 22.7423 129.641 22.3732 129.641 21.744V1.85131C129.745 1.1132 130.117 0.744141 130.756 0.744141Z" fill="#838393"/>
<defs>
<linearGradient id="paint0_linear_448_68381" x1="34.7672" y1="23.6318" x2="34.7672" y2="54" gradientUnits="userSpaceOnUse">
<stop offset="0.358839" stop-color="#ECECF2"/>
<stop offset="1" stop-color="#ECECF2" stop-opacity="0"/>
</linearGradient>
</defs>
</svg>
