<svg width="40" height="40" viewBox="0 0 40 40" fill="none" xmlns="http://www.w3.org/2000/svg">
<path fill-rule="evenodd" clip-rule="evenodd" d="M16.75 11.0269C16.75 10.3673 16.1212 9.88843 15.5054 10.1247C10.5312 12.0329 7 16.854 7 22.4999C7 29.8177 12.9322 35.7499 20.25 35.7499C27.5678 35.7499 33.5 29.8177 33.5 22.4999C33.5 16.854 29.9688 12.0329 24.9946 10.1247C24.3788 9.88843 23.75 10.3673 23.75 11.0269V11.6191C23.75 12.046 24.023 12.4216 24.4165 12.5871C28.2843 14.2148 31 18.0402 31 22.4999C31 28.437 26.1871 33.2499 20.25 33.2499C14.3129 33.2499 9.5 28.437 9.5 22.4999C9.5 18.0402 12.2157 14.2148 16.0835 12.5871C16.477 12.4216 16.75 12.046 16.75 11.6191V11.0269Z" fill="#6BD9A4"/>
<path fill-rule="evenodd" clip-rule="evenodd" d="M20.25 5C19.4216 5 18.75 5.56554 18.75 6.26316V19.7368C18.75 20.4345 19.4216 21 20.25 21C21.0784 21 21.75 20.4345 21.75 19.7368L21.75 6.26316C21.75 5.56554 21.0784 5 20.25 5Z" fill="#6BD9A4"/>
</svg>
