<svg width="40" height="40" viewBox="0 0 40 40" fill="none" xmlns="http://www.w3.org/2000/svg">
<g id="icon/logout">
<path id="Subtract" fill-rule="evenodd" clip-rule="evenodd" d="M16.5122 9.91182C16.5122 9.25227 15.8834 8.77338 15.2682 9.01115C10.431 10.8807 7 15.5762 7 21.0731C7 28.2124 12.7876 34 19.9269 34C27.0662 34 32.8538 28.2124 32.8538 21.0731C32.8538 15.5762 29.4228 10.8807 24.5856 9.01115C23.9704 8.77338 23.3415 9.25227 23.3415 9.91182V10.4403C23.3415 10.8671 23.6146 11.2426 24.0078 11.4088C27.7728 13.0006 30.4147 16.7283 30.4147 21.0731C30.4147 26.8654 25.7192 31.561 19.9269 31.561C14.1346 31.561 9.43903 26.8654 9.43903 21.0731C9.43903 16.7283 12.081 13.0006 15.846 11.4088C16.2391 11.2426 16.5122 10.8671 16.5122 10.4403V9.91182Z" fill="#838393"/>
<path id="Union" fill-rule="evenodd" clip-rule="evenodd" d="M19.9268 4C19.1186 4 18.4634 4.55174 18.4634 5.23235V18.3775C18.4634 19.0581 19.1186 19.6098 19.9268 19.6098C20.735 19.6098 21.3902 19.0581 21.3902 18.3775L21.3902 5.23235C21.3902 4.55174 20.735 4 19.9268 4Z" fill="#838393"/>
</g>
</svg>
