<svg width="40" height="40" viewBox="0 0 40 40" fill="none" xmlns="http://www.w3.org/2000/svg">
<path fill-rule="evenodd" clip-rule="evenodd" d="M16.5122 9.91188C16.5122 9.25234 15.8834 8.77344 15.2682 9.01121C10.431 10.8808 7 15.5763 7 21.0732C7 28.2125 12.7876 34.0001 19.9269 34.0001C27.0662 34.0001 32.8538 28.2125 32.8538 21.0732C32.8538 15.5763 29.4228 10.8808 24.5856 9.01121C23.9704 8.77344 23.3415 9.25234 23.3415 9.91188V10.4403C23.3415 10.8672 23.6146 11.2427 24.0078 11.4089C27.7728 13.0007 30.4147 16.7284 30.4147 21.0732C30.4147 26.8654 25.7192 31.561 19.9269 31.561C14.1346 31.561 9.43903 26.8654 9.43903 21.0732C9.43903 16.7284 12.081 13.0007 15.846 11.4089C16.2391 11.2427 16.5122 10.8672 16.5122 10.4403V9.91188Z" fill="#6BD9A4"/>
<path fill-rule="evenodd" clip-rule="evenodd" d="M19.9269 4C19.1187 4 18.4635 4.55174 18.4635 5.23235V18.3775C18.4635 19.0581 19.1187 19.6098 19.9269 19.6098C20.7351 19.6098 21.3903 19.0581 21.3903 18.3775L21.3903 5.23235C21.3903 4.55174 20.7351 4 19.9269 4Z" fill="#6BD9A4"/>
</svg>
