<svg width="40" height="40" viewBox="0 0 40 40" fill="none" xmlns="http://www.w3.org/2000/svg">
<path d="M8 18.8335C8.41961 21.7123 9.86325 24.3439 12.0668 26.2471C14.2703 28.1502 17.0865 29.1976 20 29.1976M20 29.1976C22.9135 29.1976 25.7297 28.1502 27.9332 26.2471C30.1368 24.3439 31.5804 21.7123 32 18.8335M20 29.1976V35.2609M20.0017 5C18.6238 5 17.3023 5.54655 16.3279 6.51941C15.3536 7.49227 14.8062 8.81175 14.8062 10.1876V17.1043C14.8062 18.4802 15.3536 19.7997 16.3279 20.7725C17.3023 21.7454 18.6238 22.2919 20.0017 22.2919C21.3797 22.2919 22.7012 21.7454 23.6755 20.7725C24.6499 19.7997 25.1973 18.4802 25.1973 17.1043V10.1876C25.1973 8.81175 24.6499 7.49227 23.6755 6.51941C22.7012 5.54655 21.3797 5 20.0017 5Z" stroke="#6BD9A4" stroke-width="2.4" stroke-linecap="round" stroke-linejoin="round"/>
<path d="M16 36H24" stroke="#6BD9A4" stroke-width="2.4" stroke-linecap="round"/>
</svg>
