<svg width="40" height="40" viewBox="0 0 40 40" fill="none" xmlns="http://www.w3.org/2000/svg">
<g id="Frame 3">
<path id="Icon" d="M16.0803 8.27042L18.0983 5.42193C18.2857 5.15729 18.5899 5 18.9142 5H22.0861C22.4092 5 22.7124 5.15611 22.9001 5.41911L24.8985 8.21947M16.0803 8.27042C15.5683 8.98795 14.7172 9.33954 13.8139 9.27686M16.0803 8.27042C15.5658 8.98623 14.7172 9.34245 13.8139 9.27686M13.8139 9.27686L10.2443 9.05673C9.92687 9.03716 9.61909 9.1697 9.41524 9.41375L7.42083 11.8013C7.19911 12.0668 7.13028 12.4279 7.23883 12.7563L8.28179 15.9113M8.28179 15.9113C8.41306 16.3294 8.42986 16.7773 8.33592 17.2003M8.28179 15.9113C8.41493 16.3286 8.4311 16.7756 8.33529 17.2046M8.33592 17.2003C8.24073 17.6183 8.03667 18.013 7.73368 18.3326M8.33592 17.2003L8.33529 17.2046M7.73368 18.3326L5.37504 20.8244C5.14128 21.0714 5.04903 21.4202 5.13016 21.7504L5.83764 24.6302C5.91754 24.9554 6.15494 25.2191 6.47004 25.3325L9.72142 26.503C10.142 26.6629 10.5053 26.9227 10.7803 27.25M7.73368 18.3326C8.03853 18.0156 8.24073 17.6222 8.33529 17.2046M10.7803 27.25C11.0534 27.5783 11.2394 27.9745 11.3116 28.4035M10.7803 27.25C11.0559 27.5783 11.2426 27.9735 11.3116 28.4035M10.7803 27.25L10.7759 27.2453C10.7579 27.2239 10.7386 27.2015 10.72 27.1806M11.3116 28.4035L11.8635 31.7333C11.9179 32.0617 12.1322 32.3415 12.4351 32.4796L15.2908 33.7819C15.5782 33.913 15.9106 33.9006 16.1873 33.7485L19.2308 32.076M19.2308 32.076C19.6222 31.86 20.0589 31.7518 20.4956 31.7513M19.2308 32.076C19.3857 31.9894 19.5481 31.9203 19.7149 31.8684C19.9681 31.7896 20.2319 31.7507 20.4956 31.7513M20.4956 31.7513C20.7227 31.7517 20.9498 31.7812 21.1713 31.8395C21.3772 31.8937 21.5775 31.9726 21.7673 32.076M20.4956 31.7513C20.9343 31.7507 21.3735 31.8589 21.7673 32.076M21.7673 32.076L24.9442 33.7652C25.2221 33.913 25.5534 33.9213 25.8384 33.7876L28.6795 32.4547C28.9815 32.3131 29.1929 32.0302 29.2433 31.7005L29.7388 28.4581M29.7388 28.4581C29.8078 28.0267 29.9914 27.6275 30.2639 27.2964M29.7388 28.4581C29.8054 28.0257 29.9901 27.6271 30.2639 27.2964M30.2639 27.2964C30.5345 26.9686 30.8935 26.7075 31.3116 26.546M30.2639 27.2964C30.5339 26.9673 30.8916 26.7055 31.3116 26.546M31.3116 26.546L34.5889 25.2844C34.8983 25.1653 35.1286 24.9006 35.2036 24.5776L35.8787 21.6745C35.9545 21.3488 35.8624 21.0067 35.6333 20.763L33.2651 18.2442M33.2651 18.2442C32.9565 17.9235 32.7412 17.5404 32.6367 17.1332M33.2651 18.2442C33.1201 18.0945 32.9957 17.9307 32.8943 17.7571C32.7786 17.5599 32.6921 17.35 32.6367 17.1332M32.6367 17.1332C32.5341 16.729 32.5403 16.3006 32.6703 15.8859L33.6961 12.6563C33.7996 12.3303 33.7294 11.974 33.5098 11.7117L31.5565 9.37813C31.3503 9.1318 31.0384 8.99951 30.7179 9.02257L27.1837 9.27686M27.1837 9.27686C26.7345 9.30801 26.2927 9.22396 25.8996 9.04316M27.1837 9.27686C26.7338 9.30981 26.2927 9.22508 25.8996 9.04316M25.8996 9.04316C25.5039 8.86004 25.1567 8.57845 24.8985 8.21947M25.8996 9.04316C25.5033 8.86071 25.1555 8.57987 24.8985 8.21947M8.33529 17.2046L8.33654 17.1983M25.4983 19.5154C25.4983 22.2196 23.2163 24.4117 20.4017 24.4117C17.5871 24.4117 15.3051 22.2196 15.3051 19.5154C15.3051 16.8112 17.5871 14.6191 20.4017 14.6191C23.2163 14.6191 25.4983 16.8112 25.4983 19.5154Z" stroke="#838393" stroke-width="2"/>
</g>
</svg>
