<svg width="48" height="48" viewBox="0 0 48 48" fill="none" xmlns="http://www.w3.org/2000/svg">
<path fill-rule="evenodd" clip-rule="evenodd" d="M10.05 14.5055C10.05 6.50054 16.2486 0 24 0C31.7514 0 37.95 6.50054 37.95 14.5055V15.063C40.3083 15.8564 42 18.1637 42 20.8352V41.9341C42 45.247 39.3982 48 36.15 48H11.85C8.60177 48 6 45.247 6 41.9341V20.8352C6 18.1637 7.69173 15.8564 10.05 15.063V14.5055ZM13.65 14.7692H34.35V14.5055C34.35 8.48471 29.71 3.69231 24 3.69231C18.29 3.69231 13.65 8.48471 13.65 14.5055V14.7692ZM11.85 18.4615C10.6432 18.4615 9.6 19.5064 9.6 20.8352V41.9341C9.6 43.2629 10.6432 44.3077 11.85 44.3077H36.15C37.3568 44.3077 38.4 43.2629 38.4 41.9341V20.8352C38.4 19.5064 37.3568 18.4615 36.15 18.4615H11.85ZM24 26.3077C24.9941 26.3077 25.8 27.1342 25.8 28.1538V33.6923C25.8 34.7119 24.9941 35.5385 24 35.5385C23.0059 35.5385 22.2 34.7119 22.2 33.6923V28.1538C22.2 27.1342 23.0059 26.3077 24 26.3077Z" fill="#6BD9A4"/>
</svg>
