<svg width="44" height="44" viewBox="0 0 44 44" fill="none" xmlns="http://www.w3.org/2000/svg">
<g id="icon/quesiton" opacity="0.44">
<path id="Union" fill-rule="evenodd" clip-rule="evenodd" d="M20.2844 29.0904H22.2322C23.1306 29.0904 23.8588 28.3734 23.8588 27.4888V24.8786C23.8588 24.6936 23.9979 24.5045 24.2294 24.4466C28.1162 23.4758 32 20.5382 32 15.0568C32 12.3564 31.0385 10.0757 29.2894 8.47316C27.5446 6.87455 25.0706 6 22.1306 6C16.607 6 13.4464 9.10565 12.098 12.6563C11.7855 13.4791 12.254 14.3317 13.0267 14.625L14.7993 15.2979C15.7301 15.6512 16.6803 15.1038 17.0091 14.2887C17.84 12.229 19.489 10.8567 21.9964 10.8567C23.3707 10.8567 24.451 11.269 25.1831 11.9526C25.9116 12.6329 26.3516 13.6339 26.3516 14.9247V15.5413C26.3516 17.0822 25.7983 18.2473 24.7973 19.086C23.7764 19.9413 22.2341 20.5025 20.1884 20.6942C19.3545 20.7723 18.6578 21.4487 18.6578 22.3195V27.4888C18.6578 28.3734 19.386 29.0904 20.2844 29.0904ZM17.6289 35.6688C17.6289 36.5612 17.8688 37.4148 18.4879 38.0459C19.1113 38.6813 20.0293 39 21.1912 39C22.3531 39 23.2711 38.6813 23.8945 38.0459C24.5136 37.4148 24.7535 36.5612 24.7535 35.6688V35.0081C24.7535 34.1157 24.5136 33.2621 23.8945 32.631C23.2711 31.9956 22.3531 31.6769 21.1912 31.6769C20.0293 31.6769 19.1113 31.9956 18.4879 32.631C17.8688 33.2621 17.6289 34.1157 17.6289 35.0081V35.6688ZM22.484 28.4589C22.4035 28.4791 22.3191 28.4898 22.2322 28.4898H20.2844C19.7229 28.4898 19.2677 28.0417 19.2677 27.4888V22.3195C19.2677 21.983 19.4373 21.6857 19.6974 21.4976C19.4373 21.6857 19.2678 21.983 19.2678 22.3194V27.4888C19.2678 28.0416 19.7229 28.4898 20.2844 28.4898H22.2323C22.3192 28.4898 22.4035 28.4791 22.484 28.4589ZM24.0794 23.8645C24.0806 23.8642 24.0817 23.8639 24.0829 23.8636C24.0818 23.8639 24.0806 23.8642 24.0795 23.8645C24.0795 23.8645 24.0795 23.8645 24.0794 23.8645ZM16.6042 8.01546C14.6706 9.18305 13.3958 10.9538 12.6693 12.8667C12.485 13.3519 12.7552 13.8783 13.2462 14.0647L15.0187 14.7375C15.2816 14.8373 15.5568 14.8214 15.7992 14.7203C15.5568 14.8213 15.2817 14.8373 15.0188 14.7375L13.2462 14.0646C12.7552 13.8783 12.4851 13.3519 12.6694 12.8666C13.3958 10.9537 14.6706 9.18305 16.6042 8.01546ZM18.8879 11.0679C19.746 10.5503 20.7822 10.2561 21.9964 10.2561C24.9934 10.2561 26.9616 12.0619 26.9616 14.9247V15.5413C26.9616 17.2325 26.3488 18.5656 25.2118 19.5273C26.3488 18.5656 26.9616 17.2325 26.9616 15.5412V14.9246C26.9616 12.0619 24.9934 10.2561 21.9964 10.2561C20.7822 10.2561 19.7461 10.5503 18.8879 11.0679ZM20.4032 38.3379C18.8737 38.0804 18.2389 37.0391 18.2389 35.6688V35.0081C18.2389 34.2154 18.4514 33.5327 18.9267 33.0482C18.4514 33.5327 18.239 34.2154 18.239 35.0081V35.6687C18.239 37.039 18.8738 38.0804 20.4032 38.3379Z" fill="#838393"/>
</g>
</svg>
