<svg width="37" height="40" viewBox="0 0 37 40" fill="none" xmlns="http://www.w3.org/2000/svg">
<path fill-rule="evenodd" clip-rule="evenodd" d="M21.6 3.46667L19.6 0.8C18.8 -0.266667 17.2 -0.266667 16.4 0.8L14.4 3.46667C14.1498 3.80032 14.0231 4.17003 14.0002 4.53619C5.95757 6.49169 0 13.5689 0 22C0 31.9411 8.28273 40 18.5 40C28.7173 40 37 31.9411 37 22C37 13.2141 30.5304 5.89836 21.9735 4.31677C21.9214 4.02385 21.8003 3.73371 21.6 3.46667Z" fill="#6BD9A4"/>
<path d="M25.5217 13.1297L26.7609 14.3368M28 15.544L26.7609 14.3368M15.3333 10.9836H20.5652M24.6957 16.3488L26.7609 14.3368M19.0938 20.2385L17.3125 21.9738L19.0938 23.7091L17.3125 25.4443M27.1739 22.7869C27.1739 27.676 23.1055 31.6394 18.087 31.6394C13.0684 31.6394 9 27.676 9 22.7869C9 17.8978 13.0684 13.9345 18.087 13.9345C23.1055 13.9345 27.1739 17.8978 27.1739 22.7869Z" stroke="#26262D" stroke-width="2.4" stroke-linecap="round" stroke-linejoin="round"/>
</svg>
